<svg xmlns="http://www.w3.org/2000/svg" xmlns:xlink="http://www.w3.org/1999/xlink" viewBox="0,0,256,256" width="64px" height="64px" fill-rule="nonzero"><g fill="#ffffff" fill-rule="nonzero" stroke="none" stroke-width="1" stroke-linecap="butt" stroke-linejoin="miter" stroke-miterlimit="10" stroke-dasharray="" stroke-dashoffset="0" font-family="none" font-weight="none" font-size="none" text-anchor="none" style="mix-blend-mode: normal"><g transform="scale(4,4)"><path d="M31,4c-15.98828,0 -29,13.01172 -29,29c0,15.98828 13.01172,29 29,29c15.98828,0 29,-13.01172 29,-29c0,-15.98828 -13.01172,-29 -29,-29zM31,6c14.88672,0 27,12.11328 27,27c0,14.88672 -12.11328,27 -27,27c-14.88672,0 -27,-12.11328 -27,-27c0,-14.88672 12.11328,-27 27,-27zM31,13c-0.55469,0 -1,0.44531 -1,1c0,0.55469 0.44531,1 1,1c1.0625,0 2.12891,0.09375 3.16797,0.27734c0.05859,0.01172 0.11719,0.01563 0.17578,0.01563c0.47266,0 0.89453,-0.33984 0.98047,-0.82422c0.09766,-0.54297 -0.26562,-1.0625 -0.80859,-1.16016c-1.15234,-0.20312 -2.33594,-0.30859 -3.51562,-0.30859zM38.41016,14.5c-0.39062,0 -0.76172,0.22656 -0.92578,0.60938c-0.21484,0.50781 0.02344,1.09375 0.53125,1.3125c6.67578,2.82422 10.98438,9.33203 10.98438,16.57813c0,9.92578 -8.07422,18 -18,18c-9.92578,0 -18,-8.07422 -18,-18c0,-5.98828 3.04688,-11.63672 8,-14.96094v4.96094c0,0.55469 0.44531,1 1,1c0.55469,0 1,-0.44531 1,-1v-7c0,-0.55469 -0.44531,-1 -1,-1h-7.08203c-0.55469,0 -1,0.44531 -1,1c0,0.55469 0.44531,1 1,1h4.09766c-4.98437,3.75 -8.01562,9.70313 -8.01562,16c0,11.02734 8.97266,20 20,20c11.02734,0 20,-8.97266 20,-20c0,-8.05078 -4.78906,-15.28125 -12.20312,-18.42187c-0.125,-0.05469 -0.25781,-0.07812 -0.38672,-0.07812zM31,19c-0.55469,0 -1,0.44531 -1,1v2c0,0.55469 0.44531,1 1,1c0.55469,0 1,-0.44531 1,-1v-2c0,-0.55469 -0.44531,-1 -1,-1zM37.625,20.75c-0.39062,-0.04687 -0.78516,0.13281 -0.98828,0.49219l-1,1.73047c-0.27734,0.48047 -0.11719,1.08984 0.36328,1.36719c0.15625,0.08984 0.32813,0.13281 0.5,0.13281c0.34375,0 0.67969,-0.17969 0.86328,-0.5l1,-1.73047c0.27734,-0.48047 0.11328,-1.08984 -0.36328,-1.36719c-0.12109,-0.06641 -0.24609,-0.10937 -0.375,-0.125zM42.13672,25.50781c-0.12891,0.01563 -0.25781,0.05859 -0.375,0.12891l-1.73437,1c-0.48047,0.27344 -0.64453,0.88281 -0.36719,1.36328c0.1875,0.32031 0.51953,0.5 0.86719,0.5c0.17188,0 0.33984,-0.04297 0.5,-0.13672l1.73047,-1c0.48047,-0.27344 0.64063,-0.88672 0.36719,-1.36328c-0.20703,-0.35937 -0.60547,-0.53906 -0.98828,-0.49219zM18,32c-0.55469,0 -1,0.44531 -1,1c0,0.55469 0.44531,1 1,1h2c0.55469,0 1,-0.44531 1,-1c0,-0.55469 -0.44531,-1 -1,-1zM42,32c-0.55469,0 -1,0.44531 -1,1c0,0.55469 0.44531,1 1,1h2c0.55469,0 1,-0.44531 1,-1c0,-0.55469 -0.44531,-1 -1,-1zM21.34766,37.50781c-0.12891,0.01563 -0.25781,0.05859 -0.375,0.12891l-1.73437,1c-0.47656,0.27344 -0.64062,0.88672 -0.36328,1.36328c0.1875,0.32031 0.51953,0.5 0.86719,0.5c0.17188,0 0.33984,-0.04297 0.49609,-0.13672l1.73438,-1c0.48047,-0.27344 0.64453,-0.88672 0.36719,-1.36328c-0.20703,-0.35937 -0.60547,-0.53906 -0.99219,-0.49219zM25.625,41.53516c-0.39062,-0.04687 -0.78516,0.13281 -0.98828,0.49219l-1,1.73438c-0.27734,0.47656 -0.11719,1.08594 0.36328,1.36328c0.15625,0.08984 0.32813,0.13672 0.5,0.13672c0.34375,0 0.67969,-0.18359 0.86328,-0.5l1,-1.73437c0.27734,-0.48047 0.11328,-1.08984 -0.36328,-1.36719c-0.12109,-0.07031 -0.25,-0.10937 -0.375,-0.125zM31,43c-0.55469,0 -1,0.44531 -1,1v2c0,0.55469 0.44531,1 1,1c0.55469,0 1,-0.44531 1,-1v-2c0,-0.55469 -0.44531,-1 -1,-1z"></path></g></g></svg>